<svg width="1200" height="1500" viewBox="0 0 1200 1500" fill="none" xmlns="http://www.w3.org/2000/svg">
  <rect width="1200" height="1500" fill="#111111"/>
  <rect x="78" y="92" width="1044" height="1316" rx="10" fill="url(#bg)"/>
  <ellipse cx="618" cy="1184" rx="402" ry="140" fill="#050505" fill-opacity="0.55"/>
  <g filter="url(#shadow)">
    <circle cx="259" cy="1108" r="132" fill="url(#lava1)"/>
    <circle cx="437" cy="1028" r="118" fill="url(#lava2)"/>
    <circle cx="628" cy="1135" r="154" fill="url(#lava3)"/>
    <circle cx="840" cy="1030" r="126" fill="url(#lava2)"/>
    <circle cx="995" cy="1134" r="118" fill="url(#lava1)"/>
  </g>
  <g opacity="0.26" fill="#B2182F">
    <path d="M335 1012L370 983L401 1012L370 1042L335 1012Z"/>
    <path d="M742 1164L774 1132L806 1164L774 1196L742 1164Z"/>
    <path d="M923 970L946 947L969 970L946 994L923 970Z"/>
  </g>
  <g opacity="0.2" stroke="#EEE4D5">
    <path d="M184 1044C225 1020 274 1019 331 1037"/>
    <path d="M184 1091C233 1068 282 1067 344 1087"/>
    <path d="M376 977C416 958 467 958 524 973"/>
    <path d="M376 1020C422 1003 477 1004 538 1020"/>
    <path d="M545 1085C600 1050 674 1050 735 1086"/>
    <path d="M548 1150C608 1116 684 1118 740 1153"/>
    <path d="M764 983C808 963 857 965 911 983"/>
    <path d="M762 1035C808 1017 863 1018 918 1037"/>
    <path d="M928 1081C964 1061 1008 1060 1053 1074"/>
    <path d="M929 1126C969 1109 1010 1109 1060 1125"/>
  </g>
  <defs>
    <linearGradient id="bg" x1="116" y1="104" x2="1080" y2="1408" gradientUnits="userSpaceOnUse">
      <stop stop-color="#191919"/>
      <stop offset="0.48" stop-color="#0F0F0F"/>
      <stop offset="1" stop-color="#22201D"/>
    </linearGradient>
    <radialGradient id="lava1" cx="0" cy="0" r="1" gradientUnits="userSpaceOnUse" gradientTransform="translate(259 1108) rotate(90) scale(132)">
      <stop stop-color="#484745"/>
      <stop offset="1" stop-color="#0A0A0A"/>
    </radialGradient>
    <radialGradient id="lava2" cx="0" cy="0" r="1" gradientUnits="userSpaceOnUse" gradientTransform="translate(437 1028) rotate(90) scale(118)">
      <stop stop-color="#3A3937"/>
      <stop offset="1" stop-color="#050505"/>
    </radialGradient>
    <radialGradient id="lava3" cx="0" cy="0" r="1" gradientUnits="userSpaceOnUse" gradientTransform="translate(628 1135) rotate(90) scale(154)">
      <stop stop-color="#50504E"/>
      <stop offset="1" stop-color="#090909"/>
    </radialGradient>
    <filter id="shadow" x="87" y="820" width="1026" height="618" filterUnits="userSpaceOnUse" color-interpolation-filters="sRGB">
      <feFlood flood-opacity="0" result="BackgroundImageFix"/>
      <feColorMatrix in="SourceAlpha" type="matrix" values="0 0 0 0 0 0 0 0 0 0 0 0 0 0 0 0 0 0 127 0" result="hardAlpha"/>
      <feOffset dy="28"/>
      <feGaussianBlur stdDeviation="20"/>
      <feComposite in2="hardAlpha" operator="out"/>
      <feColorMatrix type="matrix" values="0 0 0 0 0 0 0 0 0 0 0 0 0 0 0 0 0 0 0.45 0"/>
      <feBlend mode="normal" in2="BackgroundImageFix" result="effect1_dropShadow_0_1"/>
      <feBlend mode="normal" in="SourceGraphic" in2="effect1_dropShadow_0_1" result="shape"/>
    </filter>
  </defs>
</svg>
