<svg width="1200" height="1500" viewBox="0 0 1200 1500" fill="none" xmlns="http://www.w3.org/2000/svg">
  <rect width="1200" height="1500" fill="#1A1614"/>
  <rect x="86" y="94" width="1028" height="1312" rx="10" fill="url(#bg)"/>
  <ellipse cx="652" cy="1158" rx="364" ry="130" fill="#241A16" fill-opacity="0.42"/>
  <path d="M231 1118C231 1078 263 1046 303 1046H566C606 1046 638 1078 638 1118V1176C638 1216 606 1248 566 1248H303C263 1248 231 1216 231 1176V1118Z" fill="url(#woodLeft)"/>
  <path d="M548 1056C548 998 595 951 653 951H754C812 951 859 998 859 1056V1238C859 1296 812 1343 754 1343H653C595 1343 548 1296 548 1238V1056Z" fill="url(#spool)"/>
  <path d="M801 1098C801 1050 840 1011 888 1011H1001C1049 1011 1088 1050 1088 1098V1189C1088 1237 1049 1276 1001 1276H888C840 1276 801 1237 801 1189V1098Z" fill="url(#woodRight)"/>
  <circle cx="590" cy="1164" r="42" fill="#E3D8C3"/>
  <circle cx="839" cy="1156" r="38" fill="#E4DAC7"/>
  <g opacity="0.9">
    <circle cx="123" cy="1001" r="67" fill="url(#lava)"/>
    <circle cx="206" cy="1046" r="72" fill="url(#lava)"/>
    <circle cx="306" cy="1039" r="69" fill="url(#lava)"/>
    <circle cx="412" cy="1048" r="73" fill="url(#lava)"/>
    <circle cx="523" cy="1040" r="70" fill="url(#lava)"/>
    <circle cx="914" cy="1034" r="73" fill="url(#lava)"/>
    <circle cx="1016" cy="1045" r="70" fill="url(#lava)"/>
    <circle cx="1121" cy="1010" r="66" fill="url(#lava)"/>
  </g>
  <g opacity="0.18" stroke="#F3EBDD">
    <path d="M269 1082C336 1060 458 1058 606 1077"/>
    <path d="M268 1104C342 1084 459 1082 613 1100"/>
    <path d="M265 1128C341 1109 462 1107 615 1125"/>
    <path d="M263 1154C349 1134 466 1132 617 1149"/>
    <path d="M263 1181C348 1158 467 1158 618 1172"/>
    <path d="M565 1012C658 999 758 1008 842 1033"/>
    <path d="M565 1060C662 1045 760 1055 842 1078"/>
    <path d="M563 1107C657 1094 759 1101 841 1124"/>
    <path d="M565 1153C661 1141 759 1147 840 1171"/>
    <path d="M816 1120C869 1097 944 1094 1043 1114"/>
    <path d="M816 1149C878 1128 950 1126 1046 1144"/>
    <path d="M816 1177C881 1156 952 1154 1047 1170"/>
  </g>
  <defs>
    <linearGradient id="bg" x1="234" y1="132" x2="957" y2="1369" gradientUnits="userSpaceOnUse">
      <stop stop-color="#0E0D0D"/>
      <stop offset="0.5" stop-color="#1D1815"/>
      <stop offset="1" stop-color="#3C342C"/>
    </linearGradient>
    <linearGradient id="woodLeft" x1="231" y1="1147" x2="638" y2="1147" gradientUnits="userSpaceOnUse">
      <stop stop-color="#7A553A"/>
      <stop offset="0.48" stop-color="#A16C45"/>
      <stop offset="1" stop-color="#7D5639"/>
    </linearGradient>
    <linearGradient id="spool" x1="548" y1="1147" x2="859" y2="1147" gradientUnits="userSpaceOnUse">
      <stop stop-color="#8E633D"/>
      <stop offset="0.5" stop-color="#B98757"/>
      <stop offset="1" stop-color="#8F653E"/>
    </linearGradient>
    <linearGradient id="woodRight" x1="801" y1="1143" x2="1088" y2="1143" gradientUnits="userSpaceOnUse">
      <stop stop-color="#8C623F"/>
      <stop offset="0.5" stop-color="#C08A59"/>
      <stop offset="1" stop-color="#946744"/>
    </linearGradient>
    <radialGradient id="lava" cx="0" cy="0" r="1" gradientUnits="userSpaceOnUse" gradientTransform="translate(0 0) rotate(90) scale(72)">
      <stop stop-color="#323231"/>
      <stop offset="1" stop-color="#0C0C0C"/>
    </radialGradient>
  </defs>
</svg>
