<svg xmlns="http://www.w3.org/2000/svg" id="Layer_1" data-name="Layer 1" viewBox="573.0 0.0 826.0 826.0">
  <defs>
    <style>
      .cls-1 {
        fill: #932124;
      }

      .cls-2 {
        fill: #070707;
      }

      .cls-3 {
        fill: #a31e1b;
      }

      .cls-4 {
        fill: #b1adac;
      }

      .cls-5 {
        fill: #9d1a1f;
      }

      .cls-6 {
        fill: #a21f1f;
      }

      .cls-7 {
        fill: #a01f23;
      }

      .cls-8 {
        fill: #dfd0c6;
      }

      .cls-9 {
        fill: #ac1d1d;
      }

      .cls-10 {
        fill: #98171b;
      }

      .cls-11 {
        fill: #292929;
      }

      .cls-12 {
        fill: #282827;
      }

      .cls-13 {
        fill: #981a20;
      }

      .cls-14 {
        fill: #0d0402;
      }

      .cls-15 {
        fill: #971c1d;
      }

      .cls-16 {
        fill: #282728;
      }

      .cls-17 {
        fill: #210503;
      }

      .cls-18 {
        fill: #030303;
      }

      .cls-19 {
        fill: #100403;
      }

      .cls-20 {
        fill: #090202;
      }

      .cls-21 {
        fill: #a61b1d;
      }

      .cls-22 {
        fill: #080303;
      }

      .cls-23 {
        fill: #dbccc3;
      }

      .cls-24 {
        fill: #111111;
      }

      .cls-25 {
        fill: #ab1a19;
      }

      .cls-26 {
        fill: #b72120;
      }

      .cls-27 {
        fill: #a11a1c;
      }

      .cls-28 {
        fill: #a01e21;
      }

      .cls-29 {
        fill: #272727;
      }

      .cls-30 {
        fill: #a31d1f;
      }

      .cls-31 {
        fill: #020101;
      }

      .cls-32 {
        fill: #a91c1d;
      }

      .cls-33 {
        fill: #a41c1b;
      }

      .cls-34 {
        fill: #282727;
      }

      .cls-35 {
        fill: #9c1d22;
      }

      .cls-36 {
        fill: #020202;
      }

      .cls-37 {
        fill: #a4201e;
      }

      .cls-38 {
        fill: #111111;
      }

      .cls-39 {
        fill: #a92122;
      }

      .cls-40 {
        fill: #262626;
      }

      .cls-41 {
        fill: #0d0302;
      }

      .cls-42 {
        fill: #070505;
      }

      .cls-43 {
        fill: #702c2b;
      }

      .cls-44 {
        fill: #111111;
      }

      .cls-45 {
        fill: #111111;
      }

      .cls-46 {
        fill: #111111;
      }

      .cls-47 {
        fill: #9f1f25;
      }

      .cls-48 {
        fill: #99171c;
      }

      .cls-49 {
        fill: #262726;
      }

      .cls-50 {
        fill: #1a0606;
      }

      .cls-51 {
        fill: #b82822;
      }

      .cls-52 {
        fill: #111111;
      }

      .cls-53 {
        fill: #b72220;
      }

      .cls-54 {
        fill: #be2323;
      }

      .cls-55 {
        fill: #040303;
      }

      .cls-56 {
        fill: #a41a1c;
      }

      .cls-57 {
        fill: #111111;
      }

      .cls-58 {
        fill: #e4d0c7;
      }

      .cls-59 {
        fill: #050504;
      }

      .cls-60 {
        fill: #080807;
      }

      .cls-61 {
        fill: #d8cdc6;
      }

      .cls-62 {
        fill: #a81f1f;
      }

      .cls-63 {
        fill: #a01c1e;
      }

      .cls-64 {
        fill: #040304;
      }

      .cls-65 {
        fill: #252525;
      }

      .cls-66 {
        fill: #a3191d;
      }

      .cls-67 {
        fill: #111111;
      }

      .cls-68 {
        fill: #ae1d1c;
      }

      .cls-69 {
        fill: #252625;
      }

      .cls-70 {
        fill: #070202;
      }

      .cls-71 {
        fill: #060505;
      }

      .cls-72 {
        fill: #010202;
      }

      .cls-73 {
        fill: #a31e20;
      }

      .cls-74 {
        fill: #070606;
      }
    </style>
  </defs>
  <g id="Generative_Object" data-name="Generative Object">
    <g>
      <g>
        <g>
          <g>
            <path class="cls-72" d="M708.1,340.86c-.05,3.5-3.2,4.43-6.03,4.69.16,5.84,3.38,12.4,9.37,14.42,3.02-4.81-.53-11.56,3.26-15.77,1.84-2.05,4.45-2.31,7.45-2.41,4.54-.15,7.94,1.98,8.15,7,2.61.07,4.95.85,5.98,2.22,2.31,3.06,2.28,9.63.39,14.04-.69,1.61-3.94,1.41-5.48,3.02l-1.73,6.19c-1.72,1.76-4.95,1.51-7.62,1.74-.52,2.68.35,7.52-3.31,9.13-3.34,1.47-8.03.91-11.5.5-4.53-.53-3.57-5.87-4.48-8.03-3.1-.99-6.39-.99-8.13-4.63l-14.28-29.94c-25.77-60.7-23.97-129.29,3.61-189.22,30.34-65.95,87.74-117.67,156.71-140.82,23.72-7.96,47.59-12.81,72.9-12.82L1302.21,0c1.99,0,2.81,2.42,3.04,3.44.24,1.11-.2,2.74-1.58,3.98l-63.89,57.17c-1.88,1.68-3.85,2.19-6.64,2.19l-312.48-.1c-32.31-.01-62.6,7.01-90.76,22.45-71.15,39.02-107.1,121.01-86.05,199.9,22.1,82.8,95.03,145.59,179.38,159.24,2.67.43,3.75,2.7,3.84,4.49.08,1.66-2.02,4.98-4.82,4.7-60.02-6.11-115.01-30.58-156.9-74.35-13.46-14.07-23.73-29.51-34.38-45.67-2.92-2.42-7.32-3.44-9.86-7.18-5.56,6.49-12.94,5.47-13.01,10.6Z" />
            <path class="cls-34" d="M714.42,365.15c1.32-2.32,3.73-3.02,4.92-4.21,3.06-3.06.28-7.06-.97-9.66-1.52-3.15,2.06-4.06,4.24-3.57,2.39.54,2.19,2.51,2.31,5.46.75,1.48,4.77,1.51,6.81,1.03,1.13,2.22.8,4.58.39,7.22l-6.19,1c-1.53,1.84-1.02,4.74-.6,7.56l-9.44.82c-.51,3.17-.15,6,.31,9.64l-7.57-.02.38-5.28c.14-1.99-.45-3.99-1.68-4.91-1.29-.96-3.33-1.19-5.91-.43l-10.58-22.06c-33.5-69.86-26.59-152.1,14.45-217.7,19.09-30.51,44.06-56.77,73.46-77.48,39.47-27.8,90.42-44.84,139.04-44.84l373.9.06-26.4,23.74-31.19,27.53-318.29.13c-46.99.02-91.03,17.73-125.82,48.89-29.92,26.79-51.52,66.96-57.63,107.07-6.46,43.42,2.56,86.76,24,124.83,20.42,36.26,49.23,64.93,84.55,87.21-44.76-19.31-80.17-53.71-104.05-95.46-4.32-2.04-7.68-4.18-10.97-7.42-2.06-1.74-4.31-2.38-6.91-2.18s-3.37,3.34-5.82,4.68l-10.61,5.76-2.89,5.58c-.92,1.78-4.24,1.55-5.12,3.18-1,1.86-.91,3.72-.44,5.99,3.59,17.52,16.85,23.95,20.32,17.87Z" />
          </g>
          <g>
            <g>
              <path class="cls-36" d="M920.73,778.26c-3.07-1.74-3.88-4.5-3.27-6.76.75-2.79,3.49-4.26,6.77-3.22,23.3,7.4,46.9,11.91,71.33,14.39,17.63,1.79,33.91.38,51.08-1.81,92.15-11.8,170.6-71.94,205.52-158.07,20.82-51.36,24.09-108.65,8.58-162.22-12.31-42.49-36.14-79.74-69.4-108.83-36.75-32.15-82.89-52.6-132.15-54.36l-101.08-.44c-15.59-.07-29.55-2.66-43.77-9.13-23.44-10.67-44.1-26.21-60.86-45.75-1.41-1.65-.64-4.72.55-5.83,1.01-.94,3.27-1.81,5.29-1.3,18.49,4.64,36.26,5.6,55.53,5.6l155.86.04c92.14.02,183.74,57.51,230.39,136.21,69.3,116.92,51.76,268.92-47.71,362.17-31.09,29.15-68.22,51.49-108.99,64.17-42.18,13.12-85.59,16.47-128.95,8.64-33.47-6.04-65.05-16.65-94.72-33.48Z" />
              <path class="cls-49" d="M1335.52,525.63l-2.05.92-52.46-1.06c-.72,1.18-1.41,1.96-3.04,1.54-.15-33.82-6.72-66.94-20.45-98.05-35.22-79.76-116.84-139.25-204.1-139.62l-101.98-.43c-30.18-.13-64.13-22.47-85.63-44.62,15,2.62,27.79,3.84,42.32,3.83l155.79-.09c36.08-.02,70.23,6.69,103.07,21.26,85.78,38.05,145.28,112.49,163,204.72,3.38,17.6,4.94,34.3,5.54,51.6Z" />
              <path class="cls-62" d="M1335.52,525.63l-.69,19.05c-1.66,45.72-18.79,99.83-44.34,137.85-12.68,18.87-26.43,35.93-42.97,51.42-47.08,44.13-107.33,70.33-171.92,73.87l-21.37.18c-36.47-1.97-72.54-8.52-106.33-25.01,17.17,2.67,33.37,6.86,50.69,6.8l33.4-.11c68.43-4.63,132.53-35.14,178.34-86.11,44.65-49.68,67.94-109.41,67.64-176.55.48-.54.73-1.62,1.03-3.5l29.9.52,22.81.27c1.62.02,2.86.47,3.8,1.32Z" />
            </g>
            <g>
              <path class="cls-36" d="M637.07,824.44c-1.87,1.52-4.2,1.07-5.58.08-1.99-1.42-2.09-4.02-.83-6.45,23.37-45.17,59.11-90.32,105.11-113.35,13.12-6.57,26.76-10.26,41.67-10.3l232.6-.55c50.93-.12,99.31-22.03,136.76-55.75,36.4-32.78,60.82-76.76,69.49-124.77.48-2.66,2.4-3.63,4.22-3.94,1.39-.23,4.96.73,4.95,2.94-.19,68.64-27.15,134.86-76.24,182.98-25.1,24.6-54.65,42.31-87.9,53.67-23.87,8.16-48.02,10.76-73.55,10.76l-204.81-.03c-16.28,0-30.64,1.82-45.84,6.95-16.87,5.7-32.87,11.87-48.26,21.09-18.38,11.01-35.23,23.21-51.81,36.68Z" />
              <path class="cls-40" d="M691.33,747.31c20.36-20.55,54.05-45.2,82.45-45.22l230.33-.16c15.07-.01,28.61-1.28,42.97-4.57,11.12-2.54,21.82-4.71,32.29-9.37,30.77-11.06,57.11-28.52,80.48-51.43,24.32-23.85,42.04-52.69,54.45-84.35-7.13,45.47-27.07,87.93-56.68,122.57-28.8,33.69-66.5,58.01-108.9,70.11-17.88,5.1-34.6,7.16-53.27,7.16l-223.15-.02c-32.88,3.56-63.58,14.26-91.46,31.42l-34.84,23.56c12.55-22.6,27.32-41.54,45.32-59.71Z" />
            </g>
          </g>
        </g>
        <g>
          <path class="cls-31" d="M1021.93,534c-1.07,3.16-6.97,2.75-7.87,0-10.82-32.91-27.68-51.13-60.09-63.2-2.11-.79-3.27-1.96-3.4-3.76-.15-2.01.68-4.08,3.03-4.93,30.7-11.12,49.29-29.67,59.55-60.66.84-2.52,1.88-4.11,4.14-4.3,2.86-.24,4.38,1.14,5.34,4.05,10,30.55,29.42,49.59,59.44,60.79,2.06.77,3.02,1.86,3.39,3.33.39,1.57.22,4.14-1.69,4.82-32.77,11.67-50.58,30.61-61.84,63.85Z" />
          <path class="cls-9" d="M1018.11,521.21c-6-12.11-11.25-22.82-20.15-31.99-9.47-9.76-20.87-16.22-33.67-22.92,25.99-12,42.72-26.7,53.52-54.22,6.13,10.74,10.41,21.43,18.64,30.18,9.91,10.53,22.46,17.92,35.36,24.24-13.1,6.64-25.43,14.07-35.38,24.54-8.16,8.57-12.04,19.09-18.32,30.18Z" />
        </g>
      </g>
      <g>
        <g>
          <path class="cls-2" d="M845.14,516.39c-4.62.23-9.11.84-13.34-.63-1.67-.58-1.78-4.14-1.33-6.11l-7.15-1.66c-2.26-.52-1.36-5.06-1.31-7.73-1.92-.28-5.46.24-6.44-1.79-2.27-4.69-1.57-10.97.93-15.35l12.51.05c-.07-3.06-.35-5.55.82-8.29l17.96.03c4.19,0-.19,9.49,5.27,8.54,4.31-.76,7.54,2.16,7.51,6.39-.03,3.18.52,6.68-.74,9.49-1.17,2.61-5.09,1.97-6.76,2.74-.45,2.06-.04,4.76-1.27,6.11-1.14,1.25-3.19,1.77-5.76,1.34-.92,2.11-.69,3.67-.89,6.89Z" />
          <path class="cls-54" d="M844.92,483.58l-3.92,1.31c-2.03.68-.4,6.74-3.8,6.92-1.03.05-2.67-1.13-2.73-2.69l-.38-10.65,11.06.76c.6,1.2.65,4.05-.24,4.35Z" />
          <rect class="cls-4" x="835.31" y="492.58" width="2.8" height="3.29" transform="translate(152.7042 1184.5016) rotate(-75.8309)" />
        </g>
        <g>
          <path class="cls-71" d="M876.72,559.11c-4.72,1.25-8.91.9-13.24.23-3.8-.58-5.1-4.29-4.09-8.23l-7.82-1.15c-2.79-1.66-2.24-5.94-2.44-8.95-2.52-.08-5.43.07-6.84-1.89-2.1-2.92-2.24-12.13.09-14.4,1.76-1.71,4.09-1.61,7.04-1.27.15-2.22-.39-4.97.88-6.73,1.81-2.51,5.45-1.99,8.64-1.85-.63-3.77.38-8.33,4.16-9.11,4.42-.92,9.27-.95,13.7-.06,1.57.32,1.91,3.49,1.87,5.25,2.06.06,6.21-.74,7.29,1.84,1.63,3.94,1.58,9.86.23,14.04-.89,2.75-5.56,2.65-8.23,1.98-.89,2.63-.83,5-.04,7.86,2.4-.34,6.84-.83,8.11,2.04,1.66,3.75,1.26,9.21.35,13.25-.64,2.84-4.91,3.11-7.23,2.36-1.67.96-1.68,3.28-2.42,4.78Z" />
          <path class="cls-49" d="M874.69,515.8l1.89,1.1c-1.06,4.92.09,6.71,3.46,5.36-.66-3.41-.03-5.6,1.91-6.57,1.62.97,1.32,5.76.61,10.16-4.2-1.67-7.04.3-10.02.7-3.6.49-7.92-1.72-11.31,1.26l.1,9.71c5.18,2.32,11.11-.7,12.88,3.12,2.81-.04,2.72,3.09.03,3.71l-4.09.13c-1.38,3.91-.25,7.16,4.56,9.8-4.38,1.97-7.17.85-10.92.7l-.5-8.78-9.28-.35-.38-9.33c-2.63-.55-4.65-.29-7.72-.1l-.15-8.3,7.84-.18.59-8.43,9.54-.04-.07-9.38,10.78.14-4.15,3.14c-1.65,1.25-1.09,4.64.31,5.97,2.74,2.61,2.48-3.5,4.12-3.53Z" />
          <path class="cls-21" d="M874.22,544.36l-.03-3.71,7.85.22v9.35c-2.35.24-5.37.73-7.03-.57-1.33-1.04-.78-3.98-.79-5.29Z" />
          <polygon class="cls-26" points="881.94 515.69 881.96 524.41 874.36 524.37 874.69 515.8 881.94 515.69" />
          <path class="cls-35" d="M873.09,535.59c-2-.24-4.47.22-6.09-.95-1.24-.89-.98-4.44-.02-5.35s3.59-1.39,5.76-.74c1.27,1.29.75,4.99.35,7.04Z" />
        </g>
        <g>
          <path class="cls-59" d="M682.43,559.16c-4.61,1.24-9.57.43-13.87.53-2.66.06-2.73-3.54-3.55-4.87-2.16-.38-6.36.33-7.04-2.88-.82-3.9-1.4-9.62.4-13.34,1.27-2.62,6.2-1.96,8.48-1.81.63-2.64.73-4.81.04-7.61-2.24.23-7.23,1.12-8.51-1.66-1.77-3.85-1.44-10.01-.12-13.96.88-2.61,4.9-2.44,7.08-1.85.21-2.23-.4-5.47,1.56-6.87,2.33-1.67,13.44-1.96,16.52,1.02,1.92,1.86,2.57,4.57,2.16,8.29,2.95-.11,5.82-.61,7.95,1.48l2.05,7.47c1.28.91,5.55-.42,6.69,2.2,1.64,3.77,1.85,9.87-.09,13.78-1.04,2.1-4.85,1.79-6.89,1.82-.21,3.14-.02,5.71-1.48,7.67-1.71,2.29-4.85,1.92-8.17,1.83.35,3.02.17,7.84-3.21,8.76Z" />
          <path class="cls-12" d="M670.17,544.55c-2.63-.36-2.55-2.24-.73-3.84.87-1.45.64-3.06.69-4.66.35-2.55,1.21-2.43,1.88.04-.95,3.61,3.62,3.13,10.54,2.29,2.07-3.71,2.42-9.56-1.54-12.3-2.65-1.84-6.59-.72-9.29-.75-.57-1.42-.54-3.07-.34-4.12.15-.78,2.29-.48,3.08-1.26,1.29-1.27,1.02-5.01-.63-5.79l-3.06-1.44c-.81-.38-.89-2.37-.54-4.2l10.92.14v9.5c2.84.98,5.33.84,8.81.45l.82,9.18,7.38.29c.38,3.33.52,5.71-.18,8.65-2.06-.39-5.97-1.01-7.07.53-1.53,2.13-.33,5.8-.55,8.21l-7.93.82c-1.87,1.66-1.18,5.38-.88,8.15-3.86.9-7.38.75-11.22.21,3.23-1.91,4.32-3.22,4.47-5.69.19-2.96-1.69-4.06-4.61-4.43Z" />
          <path class="cls-13" d="M669.44,540.72c.69,1.18.75,2.5.73,3.84-.03,1.68.14,3.39-.46,5.37-2.79.53-5.16.66-8.09.27l-.02-9.33,7.84-.14Z" />
          <rect class="cls-63" x="660.95" y="516.15" width="9.67" height="8.64" transform="translate(141.8242 1183.5114) rotate(-89.6993)" />
          <path class="cls-10" d="M672.01,536.1l-1.88-.04.22-7.52c2.22-.43,5.55-.63,7.05,1.11,1.22,1.42.73,4.43.29,6.05l-5.68.4Z" />
        </g>
        <g>
          <path class="cls-60" d="M735.46,632.24c-1.89-2.31-1.53-4.08-2.48-6.38-2.38.3-5.75.83-7.25-1.29-1.23-3.61-1.95-11.57.76-14.79,8.16-4.27,18.81,1.9,16.04-4.6l-13.44-.89c-5.68-.38-5.29-12.32-3.19-15.49,1.27-1.92,4.64-1.48,7.44-1.69-.17-1.4-.81-5.29,1.43-5.82,4.34-1.03,10.49-1.3,14.75.5,2.29.97,1.16,5.69.75,7.56,3.03.31,5.45.04,7.23,1.31,1.92,1.36,1.27,4.62,1.84,6.95,1.36.78,6.18-1.16,7.33,1.75,1.46,3.72,1.5,9.26.25,13.28-.94,3.02-5.37,2.77-7.96,2.18.11,2.84.59,5.3-1.15,7.26-1.19,1.34-4.2,1.38-7,.81-.08,2.4.99,7.07-1.63,8.45-3.7,1.93-9.18.84-13.72.9Z" />
          <path class="cls-11" d="M746.73,619.02l-.24,8.46c-3.27.6-6.02.74-8.69-.72,2.73-4.69,3.96-9.12,1.5-13.4,3.07-.18,4.94.01,7.51-.85.41-3.48.48-7.1-.12-10.51-2.19-1.57-5.82-.52-7.68-.92-2.21-1.86,1.11-3.59,1.76-4.81,1.66-3.12-1.54-7.37-3.54-10,3.03-1.45,6.03-.9,8.92-.32l.19,7.8,8.22.47c-.17,3.41-.63,6.59,1.4,9.31,2.38.29,4.1-.53,6.54-.81.88,2.1,1.35,6.84-1.18,7.89-1.81.19-4.82-1.79-6.92.25l.13,7.91-7.79.24Z" />
          <path class="cls-15" d="M736.36,621.12c-2.49.91-4.66.87-6.99.11-.58-2.69-.59-5.07.03-7.77,2.45-.66,4.53-.61,7.14-.3l-.17,7.96Z" />
          <path class="cls-6" d="M736.34,599c-2.52.95-4.75.88-7.27.35-.37-2.82-.43-5.27.25-7.97,2.45-.58,4.46-.59,6.89-.08.61,2.46.61,4.48.13,7.69Z" />
        </g>
        <g>
          <path class="cls-74" d="M734.63,481.92l-1.89-5.19c-2.3.63-6.34.48-7.01-1.92-1.13-4.06-.66-8.55-.32-12.64.18-2.18,2.51-3.17,4.45-3.16l12.69.06c.6-.7.64-2.25.12-3.56l-12.56.15c-1.63.02-4.41-.76-4.71-2.83-.61-4.22-1-9.34.34-13.29.89-2.59,4.96-1.69,6.84-2.37.93-1.08-.1-5.19,2.44-5.77,3.63-.83,8.2-.94,12.08-.25,3.68.66,4.19,5.07,3.49,8.64,3.19-.05,6.49-.39,8.04,1.82,1.32,1.88.77,4.39,1.12,6.9,2.43-.43,6.53-.69,7.53,1.89,1.38,3.55.8,8.52.1,12.3-.61,3.32-5.21,2.69-7.24,3.21-.58,2.23-.24,5.28-1.81,6.68s-4.79,1.02-6.84,1.47c-.57,2.11.18,6.55-2.83,7.62-4.3,1.54-9.32.96-14.07.26Z" />
          <path class="cls-49" d="M736.44,465.87c-1.86-.26-1.84-1.01.02-1.39,2.5-1.85,5.73-2.14,9.81-1.51.69-3.84.9-7.4.09-10.99l-9.86-.7c-2.85-.25-2.61-3.34.08-3.98,1.01.22,3.89.21,4.26-.93,1.33-4.09-.65-6.91-4.42-9.72,3.66-1.72,6.39-1.02,9.77-.83l.04,8.6,8.85.02.28,8.43c2.42.8,4.54.43,7.29.32.63,2.77.69,5.02.19,7.85l-6.65.26c-1.24,2.5-.9,4.91-.73,7.83-2.96,0-5.45-.32-8.3.45l-.19,7.75c-2.88.52-5.4.93-9.34-.29,2.49-3.08,4.36-6.58,2.44-10.04-.63-.87-2.95-.96-3.65-1.12Z" />
          <path class="cls-53" d="M736.46,464.47l-.02,1.39c-.06,1.51.96,4.61-.35,6.13-1.04,1.22-4.51.94-6.15.33-.27-2.32-1.07-6.29.31-8.05s5.06-.47,6.2.2Z" />
          <path class="cls-5" d="M736.58,447.3l-.08,3.98-6.6-.09-.04-8.63c2.4-.57,4.32-.41,6.63.16.38,1.83.11,3.18.09,4.58Z" />
        </g>
        <g>
          <path class="cls-18" d="M819.18,472.85c.08,6.97-9.21.79-9.52,8.38-4.23,2.15-10.8,2.07-15.01-.3-2.09-1.18-1.67-5.03-1.7-7.1-3.05.06-6.63.49-8.23-2.35l-.97-5.92c-2.26-.11-5.86-.17-6.91-2.61-1.59-3.68-1.57-9.24-.21-12.92,1.16-3.12,5.89-1.82,7.64-2.58.58-2.55-.02-5.6,1.73-7.04,1.84-1.52,4.93-.79,7.46-1.24.86-1.42-.66-6.84,2.3-7.7,4.07-1.18,9.43-.89,13.76-.02,1.76.35,1.8,4.21,1.67,5.85,2.6.37,5.87.11,7.21,2.42,1.75,3.05.8,7.12.94,10.53s-1.64,5.45-4.93,5.51l-12.39.2c-.72.01-.61,2.91.01,2.91h11.66c2.5,0,5.34,1.42,5.37,4.07l.12,9.91Z" />
          <path class="cls-65" d="M806.95,446.5c2.45.37,2.94,3.61.87,4.86l-10.19,1.35c-.79,2.2-1.76,7.93.53,8.95l7.59,3.38c1.08.48,1.93-.87,2.63-1.07,2.57,1.11,2.01,3.09-.74,3.24-.57.11-2.67.12-3.24.92-2.07,2.94-.76,6.51,2.18,9.12-2.65,1.17-6.14,1.16-8.01-.48s-.88-5.28-.8-7.52l-9.11-.3-.27-7.92-7.48-.3c-.64-2.97-.72-5.43.11-8.37,2.14.36,5.78,1,7.05-.54,1.36-1.72.62-4.96.75-7.16,3.01-.67,5.35-.25,8.85,0l.24-8.97,9.14.22-3.62,5.05c-.77,1.07-.7,3.47.15,4.45.63.72,2.2.89,3.36,1.08Z" />
          <path class="cls-73" d="M807.82,451.36c-.78-1.58-.99-3.21-.87-4.86l.26-3.88h7.36s-.02,8.53-.02,8.53l-6.73.2Z" />
          <path class="cls-56" d="M807.65,467.21l.74-3.24c1.47-.41,4.06-.45,6.14-.17v8.52c-2.38.5-4.25.51-6.61.06l-.26-5.16Z" />
        </g>
        <g>
          <path class="cls-59" d="M818.68,623.65c-.69,2.71-4.66,2.87-7.01,2.16l-2.4,6.06c-4.56.45-9.74,1.31-14.04-.5-2.6-1.1-2.35-5.24-1.55-8.28-2.9-.23-6.61.88-8.73-1.77l-1.34-6.37c-1.58.17-5.44.54-6.28-1.36-1.74-3.96-1.57-9.99-.27-13.88,1.05-3.13,5.76-1.18,7.09-2.22l1.78-5.88c.55-1.81,3.96-2.1,6.99-1.51,1.46-2.49.54-5.15,1.17-8.33,4.81-1.34,10.36-1.68,15.09.06,1.7.62,1.8,4.05,2.1,5.83,2.57-.37,6.24-.52,7.11,2.29,1.71,5.51,1.34,14.44-3.79,14.56l-12.88.3c-.61,1.13-.54,3.02.19,3.54l11.63-.07c3.05-.02,5.5,1.78,5.47,4.93s.57,6.82-.36,10.44Z" />
          <path class="cls-29" d="M808.61,613.08c2.06,1.43,2.05,7.48-.38,8.51-2.52-.16-.55-4.8-1.74-6.45-.19-.27-1.45.23-1.7.59-2.51,3.57-1.26,7.57,3.09,10.91-4,1.65-6.83,1.07-10.08.39l-.09-7.79c-3.06-1.43-6.11-.68-9.36-.94.17-3.07,1.1-6.44-.53-8.51-.91-1.16-4.39.31-6.07,1.25-1.42-3.13-.91-5.53-.61-8.46,2.55.47,4.43,1.55,6.94,1.41,1.77-2.68,1.03-6.06,1.31-9.2,2.39-.97,6.08.26,7.57-1.09,1.93-1.88,1.12-5.24.94-8.04,2.45-.48,5.35-.81,7.98.12,1.8,4.54-6.13,6.38.75,13.95l-9.49,2.32c-.03,3.81-.26,7.13.51,10.46l10.96.58Z" />
          <path class="cls-48" d="M814.47,598.94c-.52,1.16-6.07,1.42-7,.67-.57-.45-.93-5.46-.31-7.1.51-1.33,5.53-1.95,6.59-1.22,1.23.85,1.31,6.32.72,7.64Z" />
          <path class="cls-39" d="M808.22,621.6c-.38-2.82-.57-5.78.38-8.51,1.72.09,3.46-.24,5.63.41.84,2.62.72,5.21.2,8.03l-6.21.07Z" />
        </g>
        <g>
          <path class="cls-18" d="M713.09,515.73c-4.13,1.39-9.26.98-13.23.13-1.57-.93-1.18-4.82-.98-6.9-2.28-.25-5.68.61-7.32-1.2s-.79-5.05-1.08-7.16c-2.03.46-3.41.56-4.6-.08-1.34-.72-2.12-2.21-2.09-4.02l.11-7.66c.03-1.91.84-3.45,1.79-4.33,2.56-2.37,6.59-.59,8.13-1.36,1.86-.93-.64-8.4,3.42-8.79,5.45-.52,11.55-1.15,16.78.54,2.34.76,2.03,5.66,1.66,7.53,5.03,2.11,12.01-.95,13.08,3.72.93,4.04,1,8.89-.3,12.82-.68,2.06-4.58,1.4-6.04,1.82-.65,1.91.49,5.5-1.46,6.97-1.73,1.3-4.02.89-6.3,1.42.26,1.67.46,5.88-1.56,6.56Z" />
          <path class="cls-69" d="M719.26,496.02c-2.54,1.35.72,8.8-4.06,8.69-1.8-.04-3.43.38-4.26,1.34-.96,1.12-.25,3.64-.47,5.04-1.18,1.93-5.23,1.34-7.5.73l-.53-7.16-7.3-.38c-.12-3.7.67-6.88-.41-10.38-2.66.34-3.46,1.79-5.63,3.1-.91-3.34-.61-5.76-.38-9.26l12.02.4.33,11.42,12.47.2.09-11.62,10.57.33c.78,2.47.72,4.97.21,7.29-2.22-.46-3.86-.44-5.18.26Z" />
          <path class="cls-30" d="M710.23,485.74c-1.07,3.45-.06,7.06-3.95,9.34-.46-3.71-1.2-7.77-2.36-10.87l-4.01-.66c-1.06-.17-1.54-3.79-.44-4.15,3.08-.88,7.75-1.06,11.11-.16,2.85.77.19,4.75-.35,6.49Z" />
        </g>
        <g>
          <path class="cls-64" d="M848.89,587.94c-3.64,1.44-16.52,1.19-18.5-.91-1.55-1.64-1.47-4.12-1.28-6.77-4.42.12-8.12.72-12.62-.17-2.14-4.82-2.77-11.07-1-16.24.75-1.33,4.33-1.16,5.95-.85l1.03-6.54c.41-2.59,5.14-1.21,6.95-1.98.79-1.33-.86-6.05,1.58-6.91,3.87-1.36,8.67-.42,12.84-.56,1.31,2.41.99,4.41.87,7.12,2.11.02,5.06-.5,6.72.94s1.21,4.53,1.08,6.97c2.57.05,6.38-.09,7.42,2.8,1.19,3.32.77,7.89-.11,11.45s-5.11,3.69-8.61,3.78c.15,2.66.39,6.8-2.29,7.86Z" />
          <path class="cls-16" d="M842.31,573.06c.26-3.37.93-7.55-1.46-9.34-2.78-2.09-7.38-1.04-10.62-.73l-.09,12.77-10.59.44-.2-8.36c2.14.77,3.81,1.06,4.94.48,3.39-1.75.38-8.88,2.7-9.06,2.17-.16,4.2.24,5.56-.98s1.85-3.5,1.13-6.27c2.05-1.07,4.33-1.16,7.2-.44-.01,1.67-.69,4.54.49,5.91,1.37,1.6,4.53,1.24,6.79.95l.19,8.39,7.25-.02-.11,8.61c-4.72,1.21-7.57-2.63-13.17-2.34Z" />
          <path class="cls-47" d="M844.38,576.42c1.67,1.06,2.03,5.38,1.86,7.65l-12.27.04c-1-3.85.07-7.03.64-10.65.3-1.89-1.13-4.46-.3-6.1.42-.65,2.27-.51,2.83-.26,2.15.96-1.37,6.15.49,7.94,1.67,1.61,3.54,1.35,6.75,1.37Z" />
        </g>
        <g>
          <path class="cls-55" d="M715.61,580.95c.83,2.43.41,6.92-2.65,7.34-5.07.7-10.4.62-15.55.06-3.31-.36-3.73-4.98-3.24-8.05-2.47-.36-6.74.8-8.29-1.25-2.38-3.14-2.19-8.25-1.97-12.02.21-3.58,2.94-5.01,6.61-4.87.09-2.49-.23-5.1,1-6.71,1.66-2.19,5.13-1.07,7.45-1.59.68-1.25-.42-5.74,1.92-6.37,3.86-1.04,8.34-.31,12.4.23l1.22,6.78c2.24,0,5.48-.33,6.84,1.43,1.41,1.82.78,4.48,1.04,6.84,2.33-.13,6.25.23,6.74,2.63.73,3.55-.01,7.38-.11,10.99-.08,2.75-2.36,4.18-4.86,4.27l-8.56.3Z" />
          <path class="cls-40" d="M714.57,563.1l-12.35.25-.36,10.74c-4.66,1.01-8.78,2.13-13.14,1.44.17-3.38-.62-5.87.39-9.14,1.64,1.69,4.95,2.81,5.71,1.23,1.31-2.74.33-5.65.2-9.07,2.25-.14,5.52.91,7.46-.81,1-.88.66-3.9.31-5.73,2.53-.32,4.58-.41,7.33.1-.19,2.2-.59,5.05,1.18,6.49,1.4,1.13,4.59.17,6.59,1.04.28,2.64-.39,5.99,1.3,8.31.91,1.24,3.56.78,5.31-.09.56,2.74.4,5.15.13,8.14l-9.8-.1-.27-12.8Z" />
          <path class="cls-27" d="M712.02,584.53l-12.88-.4c-.7-2.59-.57-4.9.56-7.19l6.23-1.17c1.9-.36-.97-5.81.99-8.36.68-.89,3.19-.87,3.31.63l.66,8.1c.23,2.81,2.48,4.73,1.13,8.37Z" />
        </g>
        <g>
          <path class="cls-42" d="M762.02,427.46c-2.27-1.33-7.76-.1-8.58-4.7-.4-2.26.35-5.41-1.16-7.43-.59,1.92-.65,5.18-2.6,5.68-4.13,1.06-9.55,1.1-13.57-.06-2.95-.86-1.7-5.26-2.75-7.04-.62-1.05-4.48-.55-4.8-1.37l-2.04-5.2c-.5-1.27-5.2-.05-5.73-2.98-.61-3.42-.88-7.84-.02-11.45.67-2.82,4.23-3.13,6.86-3.17-.05-2.5-.5-5.49,1.09-7.01,1.25-1.19,3.93-.83,5.55-1.02.35-2.18.81-3.88,1.8-4.67,2.76-2.21,13.15-1.71,14.27.54,1.55,3.13,2.38,4.13,5.86,5.08,2.65.73,1.47,5.96,2.36,7.34,2.42.27,5.03-.2,6.17.94,1.64,1.64,1.53,3.91,1.53,6.81,4.34.22,8.53-.55,12.28.85,3.36,1.26,2.17,5.75,2.96,8.19,1.72,1.16,6.98-.46,8.17,3.13,1.31,3.97,1.64,10.27-.21,14.2-1.29,2.75-5.6,2.43-8.16,2.49-.2,2.78.35,6.1-1.74,7.9-2.3,1.99-11.77,2.32-15.15.05-1.93-1.3-1.35-4.24-2.41-7.09Z" />
          <path class="cls-43" d="M745.69,380.57c1.09,4.17-.29,10.36-2.01,10.66-.87.15-2.76.27-2.76-.58v-3.04c-1.23-2.01-2.62-4.82-.66-6.91,1.07-.85,3.96-.42,5.43-.14Z" />
          <circle class="cls-1" cx="751.98" cy="397.54" r="3.1" />
          <g>
            <path class="cls-25" d="M777.11,430.01c-3.71.76-6.93.67-10.52.03l-.25-7.5-8.63-.23.1-10.66c2.76-1.14,5.57-.41,8.54-.66l.15-7.92,10.47.04.14,7.62,8.38.46c.83,3.78.31,7.2.18,11.06l-8.51.25-.08,7.49Z" />
            <circle class="cls-17" cx="772.01" cy="415.83" r="3.92" />
          </g>
        </g>
        <g>
          <path class="cls-22" d="M779.01,662.66c-2.9,1.77-12.88,1.78-15.06-.48s-.86-5.63-1.44-7.26c-.7-1.97-8.39.89-9.04-3.78-.53-3.87-.98-8.66.29-12.39,1.07-3.15,5.46-3.06,8.63-3.08.42-2.42-.57-6.98,2.22-8.2,3.7-1.61,9.74-1.44,13.64-.19,3.15,1.01,2.45,5.64,2.91,8.38,3.08-.07,7.61-.15,8.59,3.07,1.16,3.83,1.19,9.23-.04,13.03-.93,2.87-5.3,2.65-8.37,2.25-.44,2.79.62,6.85-2.33,8.65Z" />
          <g>
            <path class="cls-66" d="M777.3,658.99l-10.73.12-.37-8.35-8.14-.49c-.66-3.7-.77-7.17.11-10.79l8.13-.59.56-7.2c2.76-.51,6.37-1.2,9.1.12.93,1.46-.2,5.89,2.03,7.32,1.76,1.13,5.23.1,7.66.93l-.03,9.69c-2.37.11-5.66-.56-7.44,1.1-1.71,1.6-1.21,4.97-.88,8.16Z" />
            <circle class="cls-50" cx="771.75" cy="645.09" r="4.39" />
          </g>
        </g>
        <g>
          <path class="cls-70" d="M778.82,587.51c-3.95,1.51-9.46,1.29-13.53.52-3.32-.63-3.32-5.65-2.69-8.52-2.88,0-5.42.24-7.26-1.13s-2.17-3.93-1.71-6.73c-1.21-.96-4.35-1.35-5.4-.02-.15,1.44.12,4.44-2.07,4.92-3.16.68-9.16,1.63-12.16-.48-2.95-3.34-1.72-10.2-.63-14.03,7.36-2.47,14.34,1.33,12.55-3.23-.68-1.74-9.77,1.65-13.33-2.45l-1.49-6.19c-3.24.54-5.78-.14-7.58-1.62-2.04-1.68-.93-5.17-1.59-7.53-1.68-.61-6.56.62-7.45-2.23-1.27-4.06-1.38-9.95.19-14.11.92-2.47,5.24-2.05,7.84-1.7.13-2.72-.04-4.99.87-6.51,2.35-3.91,7.9-1.34,8.52-3.1s-1.13-8.33,3.07-8.62l11.25-.79v-1.43c-4.05-.59-8.02.47-12.55-1.21-1.06-4.35-2.38-10.57-.19-14.53,1.36-2.46,5.8-1.09,7.93-1.27,3.89-.33,6.86,1.24,7.59,5.48.29,1.7,4.56,2.14,4.77.81.36-2.3.16-4.68,1.52-5.96,1.76-1.66,4.79-1.01,7.27-1.54.96-1.49-.83-6.54,2.15-7.94,3.62-1.7,9.75-1.89,13.75-.41,3.13,1.16,2.54,6.07,2.25,8.73,2.97.12,5.19.06,7.08,1.5,1.54,1.18,2.16,3.44,2.32,5.9,1.05.77,3.65,1.17,4.52-.22,1.02-1.62,1.09-5.21,3.78-5.91,2.97-.77,7.89-.74,10.47.76,3.88,2.25,2.59,15.45-1.2,15.56l-10.44.32-.02,1.34,9.61.41c1.65.07,3.2.66,3.88,1.41,2.24,2.45.73,6.64,1.47,8.19.5,1.06,7.71-.12,8.25,2.31l1.37,6.11c1.71.97,6.62-.68,7.91,2.53,1.52,3.79,1.45,9.78.05,13.69-1.18,3.28-6.15,1.7-8.04,2.4-.6,2.4.39,6-1.73,7.69-1.82,1.45-4.32,1.9-7.89,1.54-.13,2.19.11,6.03-2.15,7.11-6.2,2.97-15-2.58-12.27,4.41,3.4-.06,9.12-1.92,11.88,1.61,2.02,2.59,1.83,10.08.04,12.8-2.83,2.29-8.58,1.43-11.6.62-2.42-.65-2.48-3.09-3.23-4.85-.57-1.34-4.48-.8-4.57.53-.19,2.85-.51,5.02-1.99,6.21-1.97,1.57-4.89.74-7.25,1.22-.61,1.46,1.01,6.46-2.18,7.68Z" />
          <g>
            <path class="cls-51" d="M775.86,535.79c-2.72.3-5.25.32-7.97-.21-.51-2.44-.52-4.45.03-6.79,2.71-.87,5.17-.92,7.94-.32v7.33Z" />
            <path class="cls-3" d="M806.58,497.74c-2.45.76-4.53.73-6.85.1-.77-2.55-.73-4.96-.03-7.54,2.3-.69,4.37-.71,6.67,0,.66,2.4.71,4.41.2,7.44Z" />
            <rect class="cls-7" x="737.35" y="489.73" width="7.75" height="7.95" transform="translate(241.7064 1231.021) rotate(-89.5489)" />
            <path class="cls-28" d="M744.14,572.5h-7.38s.04-6.57.04-6.57c2.43-.57,4.66-.53,7.02.36.68,2.13.72,3.91.32,6.21Z" />
            <path class="cls-37" d="M806.27,572.08c-.91,1.36-5.32,1.28-6.5.11-1-.99-.79-4.4-.06-5.41.9-1.26,3.85-1.32,5.67-.85,1.42.37,2.3,3.85.89,6.15Z" />
            <path class="cls-46" d="M780.49,523.63c-.14-1.01-.38-3.38.45-4.5.89-.39,2.48-.22,3.11-.09.73.15.8,1.93.47,2.84-.25.69-.9,1.55-4.03,1.75Z" />
            <path class="cls-24" d="M763.45,523.98c-.9.17-2.39-.37-3.24-.77-1.35-.63-2.07-2.8-1.34-4.27l3.15.88c1.09.3,1.45,1.93,1.42,4.16Z" />
            <path class="cls-57" d="M784.54,544.07c-.97.77-2.86.29-3.24-.35-.48-.79-.7-2.03-1.11-3.54,1.05-.74,2.32.24,3.14.64,1.13.54,1.92,2.7,1.22,3.26Z" />
            <path class="cls-38" d="M792.95,552.86c-.52.52-1.95.12-2.53-.04-.78-.22-2.03-2.29-.77-3.6,1.03-1.07,4.5,1.8,3.31,3.65Z" />
            <circle class="cls-67" cx="791.51" cy="512.4" r="1.99" />
            <rect class="cls-44" x="758.98" y="540.07" width="4" height="3.91" transform="translate(-58.32 92.99) rotate(-6.74)" />
            <rect class="cls-45" x="750.99" y="510.72" width="3.23" height="4.47" transform="translate(-21.02 32.28) rotate(-2.42)" />
            <path class="cls-52" d="M751.91,549.9c1.09-1.31,2.54-.67,2.64.14.06.56.06,1.67-.26,2.13s-2.09.6-2.66.32c-.51-.26-.51-1.63.28-2.58Z" />
            <g>
              <path class="cls-27" d="M808.41,552.62c-3.43,1.8-7.4.98-11,.59l-.25-7.42-7.26-.6c-.84-2.39-.47-4.63-.52-7.27l-7.28-2.23c-2.31-.71-1.45-5.58-.67-7.88l6.77-1.01,1.43-8.26c2.24.06,5.64.35,6.84-1.52,1.43-2.23.71-5.21.82-7.81l10.46-.07.42,8.34c2.91,1.46,5.86.95,9.21,1.04l.26,7.72,8.47.27-.02,10.33-8.27.49-.44,8.26-8.4,1.13-.57,5.91Z" />
              <g>
                <path class="cls-20" d="M803.38,540.24c-2.25.95-3.28-2.56-4.44-3.02-2.6-1.03-5.56-5.19-3.32-7.42l5.89-5.86c2.05-2.04,4.07,1.55,5.26,2.54,1.9,1.59,5.36,3.11,3.81,6.57-1.17,2.61-4.34,5.98-7.2,7.19Z" />
                <rect class="cls-58" x="800.6" y="529.73" width="4.88" height="4.79" transform="translate(-147.91 686.11) rotate(-42.73)" />
              </g>
            </g>
            <g>
              <path class="cls-33" d="M746.57,553.28l-10.51.7-.65-7.46c-2.62-.22-6.32.74-8.25-1.12s-.97-5.69-1.05-8.24l-7.84-.29.1-10.44c2.99.04,5.48.36,8.21-.52l.72-7.84,8.28-.16.39-8.55,10.44-.12c.46,2.84-.49,5.95.72,8.73.87,2,4.51,1.85,6.78,1.53l1.53,8.19,6.05,1.04c1.68.29,1.65,5.12.33,6.6l-6.32,2.42c-1.32,1.76-.17,5.14-1.06,7.31l-7.27.65-.59,7.58Z" />
              <g>
                <path class="cls-41" d="M740.89,541.12l-6.46-5.84c-1.15-1.03-1.77-2.26-1.67-3.57.14-1.74,6.13-7.64,7.78-8.1,2.17-.6,3.5,2.72,4.83,3.42l3.07,1.62c2.56,1.35-.38,8.33-7.54,12.47Z" />
                <rect class="cls-8" x="738.39" y="529.46" width="4.97" height="5.4" transform="translate(-115.44 846.52) rotate(-55.85)" />
              </g>
            </g>
            <g>
              <path class="cls-68" d="M777.23,584.06l-10.85.03c-.02-2.98.31-5.37-.48-8.18l-7.75-.82-.76-7.8-7.37-.52c-.45-3.39-.64-6.16.22-9.61,2.32.06,5.8.59,7.29-1.23s.81-5.01,1.13-7.28l7.58-.33,1.6-8.02c2.78-.64,5.27-.62,8.17-.28.25,2.96.14,5.48,1.17,8.32l7.5.31,1.14,8.35,7.19.51c.61,3.49.81,6.35-.03,9.91-1.94.23-5.08-.34-6.48,1.12s-.76,4.7-.83,6.75l-8.11.72c-.66,2.43-.51,4.43-.31,8.04Z" />
              <g>
                <path class="cls-19" d="M779.64,561.08c-.33,2.8-4.71,7.7-7.63,8.34-3.62-.51-6.69-5.23-8.64-8.21l8.18-8.36c2.89,2.06,6.2,4.5,8.08,8.23Z" />
                <circle class="cls-23" cx="771.83" cy="561.38" r="2.38" />
              </g>
            </g>
            <g>
              <path class="cls-32" d="M775.82,523.09c-.5,2.3-7.33,1.65-8.14-.58s.2-5.5-2.08-7.01c-1.72-1.14-4.46-.48-6.93-.71-.11-2.29.75-5.29-.9-7.03-1.46-1.54-5.22-.72-7.24-1.96-.76-2.72-.66-5.38-.27-8.4l7.02-.43c.83-2.74.49-5.21.57-8.09l8.18-.53c.82-2.79.46-5.16.49-8.33,3.17-1.21,6.62-1.02,10.18-.37l.73,8.61,8.15.62.58,7.41c.12,1.56,4.5,1.27,6.66.83,1.23,3.1.86,6.26.16,9.6l-7.26.48-.22,7.62c-2.74-.07-5.41-.44-7.98.48l-1.71,7.8Z" />
              <g>
                <path class="cls-14" d="M778.98,502.21c-.36,2.78-4.53,7.68-7.56,7.37-3.22-.73-6.87-5.94-6.98-9.16l6.29-6.36c1.63-1.65,8.68,4.8,8.25,8.14Z" />
                <circle class="cls-61" cx="771.86" cy="502.02" r="2.15" />
              </g>
            </g>
          </g>
        </g>
      </g>
    </g>
  </g>
</svg>